<svg width="396" height="260.4043534924967" viewBox="0 0 350 230.15536293528749" xmlns="http://www.w3.org/2000/svg"><g featurekey="DMynUx-0" transform="matrix(1.5586730390492187,0,0,1.5586730390492187,96.83952144359506,-11.427829166102518)" fill="#57cc99"><path xmlns="http://www.w3.org/2000/svg" d="M54.5,42.6c0.6,0.7,1.1,1.5,1.7,2.3c1.3,1.5,1.4,3.2,0.2,4.7c-1.2,1.6-2.7,3-4.2,4.4c-0.5,0.4-1.4,0.6-2.1,0.6  c-5.5-0.1-10-3.2-10.8-8.9c-0.2-1.6,0.2-3.5,1.1-4.9c1.5-2.6,3.6-4.7,6.8-5.5c1.9-0.5,3.7-1.1,5.7-1.1c5.2-0.2,10,2.9,11.8,7.7  c1.3,3.5,1.6,7.2,0.5,10.8c-0.6,2-1.8,4.1-3.2,5.6c-1.2,1.3-3.2,1.8-4.8,2.8c-0.7,0.4-1.6,0.9-2.1,1.6c-1.4,1.9-3.4,2.3-5.6,2.3  c-1.1,0-2.3-0.1-3.4-0.1c-7.8-0.3-14.4-3.3-18.5-9.9c-3.8-6.2-5-13.1-1.2-19.9c1.7-2.9,4.2-5.3,6.4-7.9c0.5-0.6,1.3-0.9,2.1-1.2  c4.4-1.6,8.9-2.6,13.5-2.9c3.6-0.2,7.1-0.3,10.7,0.4c4.4,0.8,8.1,2.6,11.2,5.9c3.5,3.7,6.3,7.8,8.1,12.6c2.2,6.2,1.5,12.2-1.8,17.8  c-2.7,4.5-5.9,8.7-9.6,12.5c-2.1,2.1-4.7,3.7-7.1,5.5c-0.6,0.5-1.5,0.8-2,1.3c-3.1,3.1-6.9,3.3-10.9,2.9C44,81.6,41,81,37.9,80.5  c-1.5-0.3-3-0.6-4.2-1.8c-0.6-0.6-1.5-0.9-2.4-1.2c-5.6-2.4-10-6.5-14.7-10.2c-0.1-0.1-0.2-0.2-0.3-0.4c-2.7-3.5-5.5-7.1-7-11.3  c-1.5-4.2-2-8.5-1.2-12.9c1.1-5.8,3.2-11.3,5.9-16.4c1.5-2.8,3.8-5.3,6.1-7.5c2.7-2.5,5.8-4.8,9-6.6c2.3-1.3,5.1-1.9,7.8-2.6  C44.9,7.3,53,7,61.1,7.6c2.1,0.2,4.3,0.8,6.3,1.7c3.3,1.4,6.4,3.1,9.5,4.8c1.2,0.7,2,1.9,3,2.9c5.1,5.2,9.3,11,11.9,17.9  c1,2.7,2.3,5.4,2.9,8.3c0.8,4,0.2,8.1-1.3,11.9c-1.1,2.9-1.9,5.8-3.1,8.7c-0.6,1.5-1.6,3-2.5,4.4c-0.7,1.2-1.7,2.2-2.4,3.3  c-2,3-3.7,6.1-5.8,8.9c-3.8,5-8.5,8.9-14.9,10.2c-3.4,0.7-6.8,1.5-10.2,1.8c-4.1,0.4-8.1-0.3-12-1.3c-2.1-0.5-4.3-1-6.4-1.6  c-1.2-0.3-2.3-0.8-3.4-1.2c-0.7-0.2-1.4-0.5-2.1-0.6c-5.9-1.3-11.5-3.4-16.4-7c-2.6-1.9-5.5-3.5-7.5-6.1c-2-2.5-2-4.1,0.3-6.9  c0.4,0.6,0.9,1.1,1.2,1.7c1.5,2.7,3.5,4.8,6.3,6.3c0.6,0.3,1.2,0.8,1.8,1.2c3.1,2.4,6.5,4.3,10,5.9c0.5,0.2,1,0.5,1.6,0.6  c4.7,1,9.3,2.1,14,3c2.5,0.5,5,0.6,7.5,1.1c2.5,0.5,5,0.3,7.5-0.2c4.4-0.9,8.8-1.7,12.9-3.5c4.1-1.8,7.6-4.4,10.2-8.1  c2.7-3.8,5.5-7.6,8-11.6c0.7-1.1,1-2.6,1.4-3.9c0.5-1.5,0.8-3.1,1.5-4.6c1.1-2.6,1.7-5.2,1.3-8c0-0.2,0-0.3-0.1-0.5  c-2.3-4.9-2.7-10.6-6.1-15c-2.1-2.7-4.2-5.3-6.3-8c-0.5-0.6-0.9-1.2-1.3-1.8c-1-1.4-2.2-2.5-3.9-3.3c-3-1.4-6-2.9-8.9-4.4  c-2.3-1.2-4.7-1.5-7.3-1.7c-5-0.4-9.9-0.3-14.8,0.6c-4,0.7-8,1.5-11.8,3c-2.9,1.2-5.4,3.5-8.1,5.3C20.8,23.6,19,26,17,28.2  c-0.8,0.9-1.3,2-1.9,3.1c-2,3.5-3.8,7-4.5,11c-0.2,1.6-0.1,3.2,0.1,4.8c0.8,5.3,3.8,9.6,6.9,13.8c3.8,5.1,8.8,8.5,14.5,11.1  c6.6,3,13.5,4.1,20.6,4.3c2,0.1,3.6-0.6,5.1-1.8c1.8-1.4,3.7-2.7,5.5-4c5.2-3.7,8.9-8.7,12.2-14c2-3.2,2.5-6.8,1.2-10.5  c-2-5.4-5.3-9.9-9.1-14c-1.6-1.7-3.7-2.3-5.9-2.8c-8.5-1.9-17-1.1-25.2,1.6c-2.4,0.8-4.5,2.5-6.6,4c-1.5,1.1-1.8,2.9-1.9,4.6  c-0.4,3.9,0.7,7.6,1.8,11.2c0.2,0.7,0.9,1.4,1.4,2c1.1,1.4,2.1,2.9,3.3,4.2c0.6,0.7,1.3,1.3,2.1,1.6c3.2,1.3,6.4,2.9,10,2.6  c1.1-0.1,2.3,0.1,3.4-0.1c1.3-0.2,2.7-0.5,3.9-1.2c2.2-1.3,4.5-2.7,6.5-4.3c2.4-1.9,4.7-6.9,2.7-10.8c-1.6-3.2-4.4-4.9-7.5-6.2  c-1-0.4-2-0.7-3-1c-0.5-0.1-1-0.3-1.4-0.3c-3,0.3-5.7,1.2-7.9,3.3c-1.6,1.5-1.7,4.4,0.7,7c1.3,1.4,3,2.9,5.2,3c0.9,0,1.9,0,2.8-0.4  c1.6-0.6,1.8-1.3,1.2-2.8c-0.2-0.5-0.5-1-0.8-1.5C51.5,43.7,52,42.9,54.5,42.6z"></path></g><g featurekey="xgcenu-0" transform="matrix(4.001833638721704,0,0,4.001833638721704,-2.3214696566376283,130.98991117058466)" fill="#57cc99"><path d="M3.94 13.620000000000001 c-0.42666 -0.17334 -0.82332 -0.36666 -1.19 -0.58 s-0.68332 -0.47 -0.94998 -0.77 s-0.47332 -0.65334 -0.61998 -1.06 s-0.22 -0.89 -0.22 -1.45 c0 -0.69334 0.12 -1.3033 0.36 -1.83 s0.57666 -0.97 1.01 -1.33 s0.95668 -0.63334 1.57 -0.82 s1.2933 -0.28 2.04 -0.28 c0.61334 0 1.24 0.06334 1.88 0.19 s1.4067 0.34332 2.3 0.64998 l-1.36 2.44 c-0.86666 -0.41334 -1.78 -0.62 -2.74 -0.62 c-0.18666 0 -0.38 0.02 -0.58 0.06 s-0.38 0.11 -0.54 0.21 s-0.29334 0.23666 -0.4 0.41 s-0.16 0.4 -0.16 0.68 c0 0.22666 0.04334 0.41332 0.13 0.55998 s0.19666 0.27332 0.33 0.37998 s0.28668 0.19666 0.46002 0.27 s0.34668 0.14334 0.52002 0.21 l1.18 0.46 c0.50666 0.2 0.97 0.41 1.39 0.63 s0.77666 0.48666 1.07 0.8 s0.52 0.69668 0.68 1.15 s0.24 1.02 0.24 1.7 s-0.12334 1.3 -0.37 1.86 s-0.60666 1.0367 -1.08 1.43 s-1.0567 0.7 -1.75 0.92 s-1.4867 0.33 -2.38 0.33 c-0.41334 0 -0.79334 -0.01334 -1.14 -0.04 s-0.68332 -0.07332 -1.01 -0.13998 s-0.65332 -0.14666 -0.97998 -0.24 s-0.67666 -0.21334 -1.05 -0.36 l0.68 -2.8 c0.54666 0.14666 1.0833 0.27666 1.61 0.39 s1.0633 0.17 1.61 0.17 c0.73334 0 1.2933 -0.09666 1.68 -0.29 s0.61332 -0.56334 0.67998 -1.11 c0.02666 -0.28 -0.0066796 -0.51334 -0.10002 -0.7 s-0.22668 -0.34332 -0.40002 -0.46998 s-0.36668 -0.23 -0.58002 -0.31 l-0.64 -0.24 z M12.64 12.059999999999999 l-1.24 0 l0 -2.52 l1.24 0 l0 -2.84 l3 0 l0 2.84 l2.48 0 l-1.4 2.52 l-1.18 0 l0.1 0.64 l0 3.14 c0 0.34666 0.02334 0.62666 0.07 0.84 s0.12 0.38 0.22 0.5 s0.22666 0.20334 0.38 0.25 s0.33 0.07 0.53 0.07 c0.14666 0 0.32666 -0.01666 0.54 -0.05 s0.44 -0.07 0.68 -0.11 l0.16 1.34 l0.12 1.2 c-0.38666 0.08 -0.74 0.14 -1.06 0.18 s-0.64666 0.06 -0.98 0.06 c-1.24 0 -2.16 -0.28666 -2.76 -0.86 s-0.9 -1.52 -0.9 -2.84 l0 -4.36 z M24.2 9.44 c0.69334 0 1.34 0.09668 1.94 0.29002 s1.1167 0.50334 1.55 0.93 s0.77334 0.98 1.02 1.66 s0.37 1.5 0.37 2.46 s-0.12334 1.78 -0.37 2.46 s-0.58666 1.2333 -1.02 1.66 s-0.95 0.73666 -1.55 0.93 s-1.2467 0.29 -1.94 0.29 c-0.70666 0 -1.3567 -0.09666 -1.95 -0.29 s-1.1067 -0.50334 -1.54 -0.93 s-0.77334 -0.98 -1.02 -1.66 s-0.37 -1.5 -0.37 -2.46 c0 -0.94666 0.12334 -1.7567 0.37 -2.43 s0.58666 -1.2267 1.02 -1.66 s0.94668 -0.75 1.54 -0.95 s1.2433 -0.3 1.95 -0.3 z M24.2 17.5 c0.6 0 1.07 -0.2 1.41 -0.6 s0.51 -1.1067 0.51 -2.12 s-0.17 -1.7233 -0.51 -2.13 s-0.81 -0.61 -1.41 -0.61 c-0.58666 0 -1.0567 0.21 -1.41 0.63 s-0.53 1.1233 -0.53 2.11 c0 1.0133 0.17334 1.72 0.52 2.12 s0.82 0.6 1.42 0.6 z M34.78 9.92 c0.16 -0.10666 0.38332 -0.21 0.66998 -0.31 s0.61 -0.15 0.97 -0.15 c0.30666 0 0.55666 0.01334 0.75 0.04 s0.29 0.03332 0.29 0.01998 l0 2.66 c-0.30666 -0.02666 -0.60666 -0.03332 -0.9 -0.01998 c-0.25334 0.02666 -0.51668 0.07 -0.79002 0.13 s-0.52334 0.17 -0.75 0.33 c-0.26666 0.18666 -0.45666 0.44 -0.57 0.76 s-0.17 0.76 -0.17 1.32 l0 5.32 l-3 0 l0 -7.94 l-1.62 0 l1.28 -2.54 l3.34 0 l0 0.78 c0.06666 -0.05334 0.12666 -0.10668 0.18 -0.16002 c0.05334 -0.04 0.10668 -0.08334 0.16002 -0.13 s0.10668 -0.08332 0.16002 -0.10998 z M38.08 9.56 l3.36 0 l1.9 7.8 l2.18 -7.8 l3.14 0 l-2.3 7.66 c-0.25334 0.84 -0.50334 1.6767 -0.75 2.51 s-0.49 1.65 -0.73 2.45 c-0.16 0.50666 -0.35 0.92666 -0.57 1.26 s-0.47334 0.6 -0.76 0.8 s-0.60332 0.34 -0.94998 0.42 s-0.72666 0.12 -1.14 0.12 c-0.33334 0 -0.69668 -0.03666 -1.09 -0.11 s-0.84334 -0.19 -1.35 -0.35 l1.16 -2.16 l0.49 0.07 l0.33 0.03 c0.13334 0 0.26668 -0.01 0.40002 -0.03 s0.26334 -0.07 0.39 -0.15 s0.24666 -0.21 0.36 -0.39 s0.21668 -0.43 0.31002 -0.75 l0.14 -0.6 l0.28 -0.34 l-1.76 0 z M50 5.82 c0.64 -0.08 1.2266 -0.14334 1.76 -0.19 s1.1 -0.07 1.7 -0.07 c0.73334 0 1.4633 0.07 2.19 0.21 s1.3767 0.38334 1.95 0.73 s1.0367 0.81332 1.39 1.4 s0.53 1.3333 0.53 2.24 c0 0.52 -0.07 0.98666 -0.21 1.4 s-0.31334 0.77668 -0.52 1.09 s-0.43666 0.58668 -0.69 0.82002 s-0.5 0.43 -0.74 0.59 l-0.1 0.06 l0.27 0.44 l0.66 1.1 l0.85 1.42 l0.85 1.41 l0.64 1.09 l0.25 0.42 l-3.66 0 l-3.78 -6.58 l0 6.6 l-3.34 0 l0 -14.18 z M53.339999999999996 13.280000000000001 l0.7 -0.32 c0.17334 -0.08 0.38 -0.18 0.62 -0.3 s0.47334 -0.27666 0.7 -0.47 s0.42 -0.42334 0.58 -0.69 s0.24 -0.59332 0.24 -0.97998 c0 -0.41334 -0.06 -0.75668 -0.18 -1.03 s-0.28666 -0.49334 -0.5 -0.66 s-0.46334 -0.28666 -0.75 -0.36 s-0.59666 -0.11 -0.93 -0.11 l-0.23 0 l-0.25 0.02 l0 4.9 z M67.03999999999999 15.42 c-0.13334 -0.02666 -0.2733 -0.04338 -0.41996 -0.050038 s-0.27332 -0.01 -0.37998 -0.01 c-0.56 0 -1.0133 0.08666 -1.36 0.26 s-0.52 0.47334 -0.52 0.9 c0 0.26666 0.06334 0.47666 0.19 0.63 s0.28332 0.26668 0.46998 0.34002 s0.38332 0.11668 0.58998 0.13002 s0.38332 0.02 0.52998 0.02 c0.26666 0 0.56666 -0.03334 0.9 -0.1 l0 -2.12 z M66 13.219999999999999 c0.10666 0 0.24996 0.0033594 0.42996 0.01002 s0.38334 0.01666 0.61 0.03 c-0.01334 -0.52 -0.19668 -0.85666 -0.55002 -1.01 s-0.81 -0.23 -1.37 -0.23 c-0.30666 0 -0.66 0.03666 -1.06 0.11 s-0.83334 0.18334 -1.3 0.33 l-0.32 -1.1 c-0.04 -0.14666 -0.09666 -0.36 -0.17 -0.64 s-0.12334 -0.5 -0.15 -0.66 c0.66666 -0.22666 1.2967 -0.39 1.89 -0.49 s1.13 -0.15 1.61 -0.15 c1.4133 0 2.5066 0.33666 3.28 1.01 s1.16 1.75 1.16 3.23 l0 5.86 c-0.52 0.14666 -1.12 0.29 -1.8 0.43 s-1.4133 0.21 -2.2 0.21 c-0.69334 0 -1.3233 -0.06 -1.89 -0.18 s-1.0533 -0.32 -1.46 -0.6 s-0.72 -0.64666 -0.94 -1.1 s-0.33 -1.0067 -0.33 -1.66 s0.13666 -1.2 0.41 -1.64 s0.62668 -0.79 1.06 -1.05 s0.92 -0.44334 1.46 -0.55 s1.0833 -0.16 1.63 -0.16 z M72.32 12.059999999999999 l-1.24 0 l0 -2.52 l1.24 0 l0 -2.84 l3 0 l0 2.84 l2.48 0 l-1.4 2.52 l-1.18 0 l0.1 0.64 l0 3.14 c0 0.34666 0.02334 0.62666 0.07 0.84 s0.12 0.38 0.22 0.5 s0.22666 0.20334 0.38 0.25 s0.33 0.07 0.53 0.07 c0.14666 0 0.32666 -0.01666 0.54 -0.05 s0.44 -0.07 0.68 -0.11 l0.16 1.34 l0.12 1.2 c-0.38666 0.08 -0.74 0.14 -1.06 0.18 s-0.64666 0.06 -0.98 0.06 c-1.24 0 -2.16 -0.28666 -2.76 -0.86 s-0.9 -1.52 -0.9 -2.84 l0 -4.36 z M83.61999999999999 9.44 c0.69334 0 1.3166 0.096622 1.87 0.28996 s1.0167 0.50668 1.39 0.94002 s0.66 0.99 0.86 1.67 s0.3 1.5 0.3 2.46 l0 0.31 l-0.04 0.63 l-5.6 0 l-0.42 -0.06 c0.01334 0.38666 0.05668 0.69666 0.13002 0.93 s0.18 0.41668 0.32 0.55002 s0.31 0.22668 0.51 0.28002 s0.42666 0.08668 0.68 0.10002 c0.41334 0.02666 0.77 -0.03334 1.07 -0.18 s0.58334 -0.44666 0.85 -0.9 c0.41334 0.13334 0.79334 0.26 1.14 0.38 c0.29334 0.10666 0.56 0.2 0.8 0.28 s0.36 0.11334 0.36 0.1 c-0.48 1 -1.0633 1.73 -1.75 2.19 s-1.51 0.69 -2.47 0.69 c-0.70666 0 -1.3467 -0.09334 -1.92 -0.28 s-1.06 -0.49 -1.46 -0.91 s-0.71 -0.96666 -0.93 -1.64 s-0.33 -1.4967 -0.33 -2.47 c0 -0.94666 0.11 -1.7567 0.33 -2.43 s0.53 -1.2267 0.93 -1.66 s0.88666 -0.75334 1.46 -0.96 s1.2133 -0.31 1.92 -0.31 z M84.72 13.440000000000001 l0.30004 0.04 c-0.02666 -0.46666 -0.15 -0.83 -0.37 -1.09 s-0.56334 -0.39 -1.03 -0.39 c-0.53334 0 -0.91668 0.13 -1.15 0.39 s-0.37668 0.62334 -0.43002 1.09 c0.06666 -0.01334 0.12666 -0.02334 0.18 -0.03 s0.11334 -0.01 0.18 -0.01 l2.32 0 z"></path></g></svg>